<svg xmlns="http://www.w3.org/2000/svg" width="500" height="500" viewBox="0 0 500 500">
  <title>_</title>
  <g>
    <g>
      <g>
        <g>
          <g>
            <path d="M169.33,284.447A35.746,35.746,0,1,1,205.076,248.7,35.787,35.787,0,0,1,169.33,284.447Zm0-61.492A25.746,25.746,0,1,0,195.076,248.7,25.775,25.775,0,0,0,169.33,222.955Z"/>
            <path d="M228.829,364.457h-119a5,5,0,0,1-5-5V337.936a49.364,49.364,0,0,1,49.308-49.308h30.383a49.364,49.364,0,0,1,49.308,49.308v21.521A5,5,0,0,1,228.829,364.457Zm-114-10h109V337.936a39.352,39.352,0,0,0-39.308-39.308H154.139a39.352,39.352,0,0,0-39.308,39.308Z"/>
          </g>
          <g>
            <path d="M330.669,284.447A35.746,35.746,0,1,1,366.415,248.7,35.786,35.786,0,0,1,330.669,284.447Zm0-61.492A25.746,25.746,0,1,0,356.415,248.7,25.775,25.775,0,0,0,330.669,222.955Z"/>
            <path d="M390.168,364.457h-119a5,5,0,0,1-5-5V337.936a49.364,49.364,0,0,1,49.308-49.308h30.382a49.364,49.364,0,0,1,49.308,49.308v21.521A5,5,0,0,1,390.168,364.457Zm-114-10h109V337.936a39.353,39.353,0,0,0-39.308-39.308H315.479a39.352,39.352,0,0,0-39.308,39.308Z"/>
          </g>
        </g>
        <path d="M296.872,428.921H203.128a38.842,38.842,0,0,1-38.8-38.8V378.768a5,5,0,0,1,10,0v11.355a28.83,28.83,0,0,0,28.8,28.8h93.744a28.83,28.83,0,0,0,28.8-28.8V378.768a5,5,0,0,1,10,0v11.355A38.841,38.841,0,0,1,296.872,428.921Z"/>
      </g>
      <path d="M265.956,196.38H234.044a5,5,0,0,1-4.46-2.74A195.187,195.187,0,0,0,211.1,164.776a50.366,50.366,0,1,1,77.8,0,195.174,195.174,0,0,0-18.483,28.864A5,5,0,0,1,265.956,196.38Zm-28.878-10h25.844a210.149,210.149,0,0,1,18.122-27.792q.047-.06.1-.119a40.366,40.366,0,1,0-62.278,0c.032.039.064.079.095.119A210.085,210.085,0,0,1,237.078,186.38Z"/>
      <path d="M266.048,214.42h-32.1a14.02,14.02,0,1,1,0-28.04h32.1a14.02,14.02,0,0,1,0,28.04Zm-32.1-18.04a4.02,4.02,0,1,0,0,8.04h32.1a4.02,4.02,0,0,0,0-8.04Z"/>
      <path d="M266.048,232.459h-32.1a14.02,14.02,0,1,1,0-28.04h32.1a14.02,14.02,0,0,1,0,28.04Zm-32.1-18.04a4.02,4.02,0,1,0,0,8.04h32.1a4.02,4.02,0,0,0,0-8.04Z"/>
      <path d="M266.048,250.5h-32.1a14.02,14.02,0,1,1,0-28.04h32.1a14.02,14.02,0,0,1,0,28.04Zm-32.1-18.04a4.02,4.02,0,1,0,0,8.04h32.1a4.02,4.02,0,0,0,0-8.04Z"/>
      <path d="M162.829,180.02A5,5,0,0,1,161,170.367l14.7-5.792a5,5,0,0,1,3.665,9.3l-14.7,5.792A4.981,4.981,0,0,1,162.829,180.02Z"/>
      <path d="M177.53,91.942a4.979,4.979,0,0,1-1.831-.35L161,85.8a5,5,0,0,1,3.665-9.3l14.7,5.792a5,5,0,0,1-1.834,9.653Z"/>
      <path d="M177.531,133.083H149.68a5,5,0,1,1,0-10h27.851a5,5,0,1,1,0,10Z"/>
      <path d="M334.3,180.02a4.982,4.982,0,0,1-1.832-.35l-14.7-5.792a5,5,0,1,1,3.666-9.3l14.7,5.792a5,5,0,0,1-1.834,9.653Z"/>
      <path d="M319.6,91.942a5,5,0,0,1-1.834-9.653l14.7-5.792a5,5,0,1,1,3.666,9.3l-14.7,5.792A4.982,4.982,0,0,1,319.6,91.942Z"/>
      <path d="M347.445,133.083H319.594a5,5,0,0,1,0-10h27.851a5,5,0,1,1,0,10Z"/>
    </g>
    <path d="M260.125,174.226a5,5,0,0,1-5-5V141.872l-2.661,1.611a5,5,0,0,1-5.226-.029l-2.364-1.467v27.239a5,5,0,0,1-10,0V133a5,5,0,0,1,7.636-4.249l7.4,4.589,7.628-4.618A5,5,0,0,1,265.125,133v36.226A5,5,0,0,1,260.125,174.226Z"/>
  </g>
</svg>
