<svg xmlns="http://www.w3.org/2000/svg" width="500" height="500" viewBox="0 0 500 500">
  <title>_</title>
  <g>
    <g>
      <path d="M245.521,429.94q-4.288,0-8.588-.324l-132.186-9.982a5,5,0,1,1,.753-9.972l132.186,9.982a103.416,103.416,0,0,0,56.531-11.885L400.4,351.148a9.335,9.335,0,0,0-8.378-16.677l-79.8,37.691a68.612,68.612,0,0,1-40.93,5.638l-32.867-5.557a5,5,0,0,1,.286-9.9l69.951-7.706a9.5,9.5,0,0,0-1.041-18.95H249.085a5,5,0,0,1-2.441-.636c-45.692-25.558-89.5,8.78-89.941,9.13a5,5,0,0,1-3.124,1.1H105.124a5,5,0,0,1,0-10h46.783a110.455,110.455,0,0,1,29.429-14.855c24.124-7.937,47.962-6.112,69.033,5.266h57.248a19.516,19.516,0,0,1,16.608,29.745l63.524-30A19.335,19.335,0,0,1,405.1,359.972l-106.18,56.611A113.391,113.391,0,0,1,245.521,429.94Zm30.132-61.607a58.555,58.555,0,0,0,26.827-2.956Z"/>
      <path d="M258.82,335.688a5,5,0,0,1-2.529-9.317l46.589-27.25a15.573,15.573,0,0,1,16.327,26.514l-14.283,9.249a5,5,0,0,1-5.436-8.394l14.283-9.249a5.573,5.573,0,0,0,1.045-8.48,5.542,5.542,0,0,0-6.887-1.008L261.34,335A4.975,4.975,0,0,1,258.82,335.688Z"/>
      <path d="M322.125,348.7a5,5,0,0,1-2.558-9.3l32.62-19.372a6.171,6.171,0,0,0,1.891-8.865,6.187,6.187,0,0,0-7.843-1.94l-24.6,14.541a5,5,0,1,1-5.089-8.608l24.713-14.609q.1-.059.2-.114a16.171,16.171,0,0,1,15.829,28.193L324.673,348A4.981,4.981,0,0,1,322.125,348.7Z"/>
      <path d="M331.955,362.313a5,5,0,0,1-2.139-9.522l53.717-25.371a5.909,5.909,0,0,0,2.521-8.42,5.915,5.915,0,0,0-7.771-2.166l-21.094,11.852a5,5,0,1,1-4.9-8.718l21.154-11.886.1-.057A15.909,15.909,0,1,1,387.8,336.461l-53.717,25.371A4.981,4.981,0,0,1,331.955,362.313Z"/>
    </g>
    <g>
      <path d="M361.937,264.062H147.487a5,5,0,0,1-5-5v-145.3a5,5,0,0,1,5-5h214.45a5,5,0,0,1,5,5v145.3A5,5,0,0,1,361.937,264.062Zm-209.45-10h204.45v-135.3H152.487Z"/>
      <path d="M361.937,172.636H147.487a5,5,0,0,1,0-10h214.45a5,5,0,0,1,0,10Z"/>
      <path d="M295.374,118.765a5,5,0,0,1-5-5V93.822a13.4,13.4,0,0,0-13.389-13.389H232.438a13.4,13.4,0,0,0-13.389,13.389v19.942a5,5,0,0,1-10,0V93.822a23.415,23.415,0,0,1,23.389-23.389h44.547a23.415,23.415,0,0,1,23.389,23.389v19.942A5,5,0,0,1,295.374,118.765Z"/>
      <path d="M183.774,210.13a19.142,19.142,0,0,1-19.121-19.12V167.636a5,5,0,0,1,5-5h28.241a5,5,0,0,1,5,5V191.01A19.142,19.142,0,0,1,183.774,210.13Zm-9.121-37.494V191.01a9.12,9.12,0,0,0,18.241,0V172.636Z"/>
      <path d="M327.36,210.13a19.142,19.142,0,0,1-19.121-19.12V167.636a5,5,0,0,1,5-5h28.241a5,5,0,0,1,5,5V191.01A19.142,19.142,0,0,1,327.36,210.13Zm-9.121-37.494V191.01a9.121,9.121,0,0,0,18.241,0V172.636Z"/>
    </g>
  </g>
</svg>
