<svg xmlns="http://www.w3.org/2000/svg" width="500" height="500" viewBox="0 0 500 500">
  <title>_</title>
  <g>
    <path d="M84.521,228.42a5.082,5.082,0,0,1-.792-.063,5,5,0,0,1-4.152-5.724,172.75,172.75,0,0,1,30.57-73.783,5,5,0,0,1,8.1,5.865,162.7,162.7,0,0,0-28.794,69.49A5,5,0,0,1,84.521,228.42Z"/>
    <path d="M348.194,119.2a4.978,4.978,0,0,1-2.931-.952,162.5,162.5,0,0,0-69.487-28.792,5,5,0,1,1,1.572-9.876,172.559,172.559,0,0,1,73.784,30.571,5,5,0,0,1-2.938,9.049Z"/>
    <path d="M385.8,353.218a5,5,0,0,1-4.046-7.933,162.7,162.7,0,0,0,28.793-69.49,5,5,0,0,1,9.876,1.572,172.749,172.749,0,0,1-30.57,73.782A4.993,4.993,0,0,1,385.8,353.218Z"/>
    <path d="M223.406,420.485a5.043,5.043,0,0,1-.794-.063,172.656,172.656,0,0,1-73.765-30.58,5,5,0,1,1,5.869-8.1,162.6,162.6,0,0,0,69.471,28.8,5,5,0,0,1-.781,9.938Z"/>
    <path d="M114.191,353.208a4.994,4.994,0,0,1-4.053-2.067,172.644,172.644,0,0,1-30.562-73.774,5,5,0,1,1,9.876-1.572,162.6,162.6,0,0,0,28.784,69.48,5,5,0,0,1-4.045,7.934Z"/>
    <path d="M276.556,420.485a5,5,0,0,1-.779-9.939,162.5,162.5,0,0,0,69.5-28.8,5,5,0,1,1,5.87,8.1,172.549,172.549,0,0,1-73.8,30.581A5.081,5.081,0,0,1,276.556,420.485Z"/>
    <path d="M415.477,228.42a5,5,0,0,1-4.932-4.215,162.6,162.6,0,0,0-28.8-69.5,5,5,0,1,1,8.1-5.867,172.642,172.642,0,0,1,30.58,73.793,5,5,0,0,1-4.152,5.724A5.076,5.076,0,0,1,415.477,228.42Z"/>
    <path d="M151.786,119.207a5,5,0,0,1-2.938-9.049,172.656,172.656,0,0,1,73.765-30.58,5,5,0,0,1,1.575,9.875,162.6,162.6,0,0,0-69.471,28.8A4.979,4.979,0,0,1,151.786,119.207Z"/>
    <g>
      <g>
        <path d="M249.982,256.734a34.971,34.971,0,1,1,34.971-34.971A35.011,35.011,0,0,1,249.982,256.734Zm0-59.943a24.971,24.971,0,1,0,24.971,24.972A25,25,0,0,0,249.982,196.792Z"/>
        <path d="M307.982,334.728h-116a5,5,0,0,1-5-5V308.75a48.246,48.246,0,0,1,48.191-48.191H264.79a48.246,48.246,0,0,1,48.191,48.191v20.979A5,5,0,0,1,307.982,334.728Zm-111-10h106V308.75a38.235,38.235,0,0,0-38.191-38.191H235.174a38.235,38.235,0,0,0-38.191,38.191Z"/>
      </g>
      <g>
        <path d="M204.807,235.218a34.973,34.973,0,1,1,34.635-39.8,5,5,0,0,1-9.906,1.369,24.965,24.965,0,1,0-11.829,24.842,5,5,0,0,1,5.187,8.55A34.86,34.86,0,0,1,204.807,235.218Z"/>
        <path d="M191.988,313.213H146.8a5,5,0,0,1-5-5V287.231A48.244,48.244,0,0,1,190,239.046h29.617a47.932,47.932,0,0,1,14.114,2.109,5,5,0,0,1-2.942,9.558,37.934,37.934,0,0,0-11.172-1.667H190A38.233,38.233,0,0,0,151.8,287.231v15.982h40.184a5,5,0,0,1,0,10Z"/>
      </g>
      <g>
        <path d="M295.194,235.218a34.9,34.9,0,0,1-18.126-5.058,5,5,0,1,1,5.191-8.547,24.979,24.979,0,1,0-11.793-24.81,5,5,0,0,1-9.907-1.362,34.968,34.968,0,1,1,34.635,39.777Z"/>
        <path d="M353.2,313.213H307.975a5,5,0,0,1,0-10H348.2V287.231A38.233,38.233,0,0,0,310,249.046H280.385a38.166,38.166,0,0,0-11.221,1.677,5,5,0,0,1-2.937-9.56,48.172,48.172,0,0,1,14.157-2.117H310A48.244,48.244,0,0,1,358.2,287.231v20.982A5,5,0,0,1,353.2,313.213Z"/>
      </g>
    </g>
    <path d="M250,100.9a18.484,18.484,0,1,1,18.484-18.484A18.505,18.505,0,0,1,250,100.9Zm0-26.969a8.484,8.484,0,1,0,8.484,8.484A8.494,8.494,0,0,0,250,73.933Z"/>
    <path d="M250,436.067a18.484,18.484,0,1,1,18.484-18.484A18.505,18.505,0,0,1,250,436.067Zm0-26.969a8.484,8.484,0,1,0,8.484,8.484A8.494,8.494,0,0,0,250,409.1Z"/>
    <path d="M417.582,268.484A18.484,18.484,0,1,1,436.067,250,18.505,18.505,0,0,1,417.582,268.484Zm0-26.969A8.484,8.484,0,1,0,426.067,250,8.494,8.494,0,0,0,417.582,241.516Z"/>
    <path d="M82.417,268.484A18.484,18.484,0,1,1,100.9,250,18.505,18.505,0,0,1,82.417,268.484Zm0-26.969A8.484,8.484,0,1,0,90.9,250,8.494,8.494,0,0,0,82.417,241.516Z"/>
    <path d="M368.5,386.975a18.427,18.427,0,0,1-13.071-5.405h0a18.505,18.505,0,1,1,13.071,5.406Zm-6-12.477a8.484,8.484,0,1,0,0-12,8.493,8.493,0,0,0,0,12Z"/>
    <path d="M131.5,149.977a18.426,18.426,0,0,1-13.07-5.4h0a18.506,18.506,0,1,1,13.07,5.405Zm-6-12.476a8.484,8.484,0,1,0,0-12,8.5,8.5,0,0,0,0,12Z"/>
    <path d="M131.5,386.975a18.476,18.476,0,1,1,13.07-5.405A18.427,18.427,0,0,1,131.5,386.975Zm0-26.956a8.48,8.48,0,1,0,6,2.481A8.458,8.458,0,0,0,131.5,360.019Z"/>
    <path d="M368.5,149.977a18.475,18.475,0,1,1,13.07-5.4h0A18.428,18.428,0,0,1,368.5,149.977Zm9.535-8.94h0ZM368.5,123.021a8.483,8.483,0,1,0,6,14.479h0a8.48,8.48,0,0,0-6-14.479Z"/>
  </g>
</svg>
