<svg xmlns="http://www.w3.org/2000/svg" width="500" height="500" viewBox="0 0 500 500">
  <title>_</title>
  <g>
    <path d="M250,423.852c-95.862,0-173.852-77.99-173.852-173.852S154.138,76.148,250,76.148,423.851,154.138,423.851,250,345.862,423.852,250,423.852Zm0-337.7c-90.348,0-163.852,73.5-163.852,163.852S159.652,413.852,250,413.852,413.851,340.348,413.851,250,340.348,86.148,250,86.148Z"/>
    <path d="M314.744,250.906a19.083,19.083,0,1,1,19.083-19.083A19.1,19.1,0,0,1,314.744,250.906Zm0-28.167a9.083,9.083,0,1,0,9.083,9.083A9.094,9.094,0,0,0,314.744,222.739Z"/>
    <path d="M310.234,329.58A19.083,19.083,0,1,1,329.318,310.5,19.1,19.1,0,0,1,310.234,329.58Zm0-28.167a9.083,9.083,0,1,0,9.083,9.083A9.094,9.094,0,0,0,310.234,301.413Z"/>
    <path d="M256.179,219.284A19.083,19.083,0,1,1,275.262,200.2,19.1,19.1,0,0,1,256.179,219.284Zm0-28.167a9.083,9.083,0,1,0,9.083,9.083A9.094,9.094,0,0,0,256.179,191.117Z"/>
    <path d="M208.11,320.455a19.083,19.083,0,1,1,19.083-19.083A19.105,19.105,0,0,1,208.11,320.455Zm0-28.167a9.083,9.083,0,1,0,9.083,9.083A9.094,9.094,0,0,0,208.11,292.289Z"/>
    <path d="M154.925,357.747a19.083,19.083,0,1,1,19.083-19.083A19.105,19.105,0,0,1,154.925,357.747Zm0-28.167a9.083,9.083,0,1,0,9.083,9.083A9.094,9.094,0,0,0,154.925,329.58Z"/>
    <path d="M358.9,343.663a19.083,19.083,0,1,1,19.083-19.083A19.105,19.105,0,0,1,358.9,343.663Zm0-28.167a9.083,9.083,0,1,0,9.083,9.083A9.094,9.094,0,0,0,358.9,315.5Z"/>
    <path d="M200.475,236.823a19.083,19.083,0,1,1,19.083-19.083A19.1,19.1,0,0,1,200.475,236.823Zm0-28.167a9.083,9.083,0,1,0,9.083,9.083A9.094,9.094,0,0,0,200.475,208.656Z"/>
    <path d="M247.615,285.417A19.083,19.083,0,1,1,266.7,266.333,19.1,19.1,0,0,1,247.615,285.417Zm0-28.167a9.083,9.083,0,1,0,9.083,9.083A9.094,9.094,0,0,0,247.615,257.25Z"/>
    <path d="M194.027,153.19a19.083,19.083,0,1,1,19.083-19.083A19.105,19.105,0,0,1,194.027,153.19Zm0-28.167a9.083,9.083,0,1,0,9.083,9.083A9.094,9.094,0,0,0,194.027,125.023Z"/>
    <path d="M256.179,191.117a5,5,0,0,1-5-5V81.272a5,5,0,1,1,10,0V186.117A5,5,0,0,1,256.179,191.117Z"/>
    <path d="M163.2,194.44H92.338a5,5,0,0,1,0-10H163.2a25.859,25.859,0,0,0,25.83-25.83V148.19a5,5,0,0,1,10,0v10.42A35.871,35.871,0,0,1,163.2,194.44Z"/>
    <path d="M194.027,306.372H169.817a33.534,33.534,0,0,1-33.5-33.5,23.523,23.523,0,0,0-23.5-23.5H81.641a5,5,0,0,1,0-10h31.183a33.534,33.534,0,0,1,33.5,33.5,23.523,23.523,0,0,0,23.5,23.5h24.209a5,5,0,1,1,0,10Z"/>
    <path d="M208.11,418.613a5,5,0,0,1-5-5V367.934a24.3,24.3,0,0,0-24.271-24.271h-9.831a5,5,0,0,1,0-10h9.831a34.31,34.31,0,0,1,34.271,34.271v45.679A5,5,0,0,1,208.11,418.613Z"/>
    <path d="M186.392,222.739H84.24a5,5,0,1,1,0-10H186.392a5,5,0,0,1,0,10Z"/>
    <path d="M237.568,423.852a5,5,0,0,1-5-5V359.33a25.7,25.7,0,0,1,25.667-25.667A15.684,15.684,0,0,0,273.9,318V283a11.68,11.68,0,0,0-11.667-11.667,5,5,0,0,1,0-10A21.691,21.691,0,0,1,283.9,283v35a25.7,25.7,0,0,1-25.667,25.667,15.684,15.684,0,0,0-15.667,15.667v59.522A5,5,0,0,1,237.568,423.852Z"/>
    <path d="M334.773,236.823h-5.946a5,5,0,0,1,0-10h5.946a21.8,21.8,0,0,0,0-43.59h-7.317a31.831,31.831,0,0,1-31.795-31.795V90.884a5,5,0,1,1,10,0v60.553a21.82,21.82,0,0,0,21.795,21.795h7.317a31.8,31.8,0,0,1,0,63.59Z"/>
    <path d="M358.9,313.074a5,5,0,0,1-5-5V278.031A28.668,28.668,0,0,1,382.537,249.4H418.8a5,5,0,0,1,0,10H382.537A18.657,18.657,0,0,0,363.9,278.031v30.042A5,5,0,0,1,358.9,313.074Z"/>
    <path d="M267.6,422.943a5,5,0,0,1-5-5V391.985A18,18,0,0,1,280.583,374h7.068a17.6,17.6,0,0,0,17.583-17.583V324.58a5,5,0,0,1,10,0v31.837A27.614,27.614,0,0,1,287.651,384h-7.068a7.994,7.994,0,0,0-7.984,7.985v25.958A5,5,0,0,1,267.6,422.943Z"/>
  </g>
</svg>
