<svg height="500" viewBox="0 0 500 500" width="500" xmlns="http://www.w3.org/2000/svg"><path d="m240.973 440.259c-31.386 0-54.856-7.894-69.758-23.463a57.034 57.034 0 0 1 -15.935-38.954c0-10.774 8.666-17.43 17.045-23.867 8.922-6.853 17.35-13.326 17.35-24.456a5.057 5.057 0 0 1 .038-.614c.044-.45 1.053-12.446-14.379-20.32-11-5.61-19.837-26.053-14.943-46.417 4-16.622 19.979-44.506 82.134-44.506 68.929 0 95.019 41.745 104.768 76.764a5 5 0 0 1 -9.634 2.682c-8.82-31.681-32.484-69.446-95.134-69.446-55.3 0-69.1 23.083-72.411 36.843-3.886 16.167 3.3 31.876 9.765 35.172 20.431 10.424 20.019 27.257 19.8 30.074-.114 15.912-11.833 24.914-21.258 32.153-7.049 5.415-13.137 10.09-13.137 15.936 0 8.753 3.649 52.417 75.693 52.417 66.978 0 102.074-68.923 102.074-92.763 0-3.134-.1-6.372-.309-9.625a5 5 0 0 1 9.98-.628c.218 3.461.328 6.911.328 10.253 0 13.938-9.062 39.42-28.958 62.432-15.911 18.4-43.245 40.333-83.119 40.333z"/><path d="m205.829 284.109a18.481 18.481 0 1 1 18.481-18.481 18.5 18.5 0 0 1 -18.481 18.481zm0-26.962a8.481 8.481 0 1 0 8.481 8.481 8.491 8.491 0 0 0 -8.481-8.481z"/><path d="m205.829 404.814a18.481 18.481 0 1 1 18.481-18.481 18.5 18.5 0 0 1 -18.481 18.481zm0-26.962a8.481 8.481 0 1 0 8.481 8.481 8.491 8.491 0 0 0 -8.481-8.481z"/><path d="m258.009 276.835a18.481 18.481 0 1 1 18.481-18.481 18.5 18.5 0 0 1 -18.481 18.481zm0-26.962a8.481 8.481 0 1 0 8.481 8.481 8.491 8.491 0 0 0 -8.481-8.481z"/><path d="m297.465 303.8a18.481 18.481 0 1 1 18.481-18.481 18.5 18.5 0 0 1 -18.481 18.481zm0-26.962a8.481 8.481 0 1 0 8.481 8.481 8.491 8.491 0 0 0 -8.481-8.484z"/><path d="m303.688 377.852a4.986 4.986 0 0 1 -3.2-1.155l-22.932-19.062a5 5 0 0 1 -.4-7.324c3.38-3.491 83.209-85.623 119.325-96.736a5 5 0 0 1 6.074 6.729c-.729 1.722-18.743 43.022-95.424 116.166a4.991 4.991 0 0 1 -3.443 1.382zm-15.555-24.432 15.319 12.733c48.526-46.733 72.3-79.9 82.759-96.841-32.531 18.98-83.811 69.713-98.077 84.107z"/><path d="m258.595 414.236a84.744 84.744 0 0 1 -26.861-4.548 5 5 0 0 1 -.032-9.365c10.65-4.03 11.523-8.084 13.437-16.968a77.567 77.567 0 0 1 4.421-14.965c8.475-19.976 30.408-19.628 31.332-19.6a5 5 0 0 1 -.249 10c-.705-.01-16.106-.1-21.877 13.506a68.323 68.323 0 0 0 -3.851 13.165c-1.375 6.384-2.7 12.528-8.351 17.679 9.209 1.576 22.41 2.189 33.353-3.717 9.455-5.1 15.815-14.425 18.9-27.7a5 5 0 0 1 9.74 2.266c-3.772 16.216-11.829 27.744-23.946 34.265-8.428 4.531-17.659 5.982-26.016 5.982z"/><path d="m107.053 342.182c-6.571 0-12.406-2.517-15.956-7.506-6.833-9.606-2.229-24.216 10.483-33.259s28.024-8.6 34.857 1 2.229 24.215-10.483 33.259a33.165 33.165 0 0 1 -18.901 6.506zm13.489-37.251a23.589 23.589 0 0 0 -13.165 4.634c-7.872 5.6-11.6 14.445-8.132 19.314s13.041 4.252 20.913-1.348 11.6-14.445 8.131-19.314c-1.568-2.206-4.394-3.286-7.747-3.286z"/><path d="m362.131 246.25c-6.775 0-12.586-2.713-15.962-7.46-3.4-4.783-4.044-11.225-1.761-17.675a35.063 35.063 0 0 1 30.982-22.04c6.822-.05 12.717 2.676 16.12 7.459 3.4 4.783 4.044 11.225 1.76 17.675a35.062 35.062 0 0 1 -30.981 22.04zm13.414-37.175h-.094a25.135 25.135 0 0 0 -21.617 15.378c-.694 1.96-1.555 5.677.482 8.54s5.869 3.273 7.91 3.257a25.135 25.135 0 0 0 21.617-15.378c.694-1.96 1.555-5.677-.482-8.54-2.007-2.821-5.718-3.257-7.816-3.257z"/><path d="m290.75 201.866c-6.572 0-12.406-2.516-15.956-7.505-6.834-9.607-2.229-24.216 10.483-33.259a33.273 33.273 0 0 1 18.738-6.456c6.864-.059 12.718 2.676 16.12 7.459 6.833 9.606 2.229 24.215-10.483 33.259a33.162 33.162 0 0 1 -18.902 6.502zm13.42-37.221h-.093a23.564 23.564 0 0 0 -13 4.6c-7.872 5.6-11.6 14.444-8.132 19.313s13.041 4.251 20.913-1.348 11.6-14.444 8.132-19.313c-2.01-2.816-5.721-3.252-7.819-3.252z"/><path d="m216.121 197.724c-6.775 0-12.586-2.713-15.962-7.46-3.4-4.783-4.044-11.225-1.761-17.675a33.277 33.277 0 0 1 12.244-15.584c12.713-9.042 28.025-8.6 34.858 1 6.834 9.607 2.229 24.216-10.483 33.259a33.273 33.273 0 0 1 -18.738 6.456zm13.482-37.2a25.2 25.2 0 0 0 -21.779 15.408c-.694 1.96-1.555 5.677.482 8.54s5.867 3.271 7.91 3.257a23.564 23.564 0 0 0 13-4.6c7.872-5.6 11.6-14.444 8.132-19.313-1.566-2.216-4.392-3.296-7.748-3.296z"/><path d="m132.364 310.318a5 5 0 0 1 -5-5v-183.498a5 5 0 0 1 3.073-4.614l111.051-46.387a5 5 0 0 1 6.927 4.614v87.4a5 5 0 0 1 -10 0v-79.893l-101.051 42.21v180.168a5 5 0 0 1 -5 5z"/><path d="m132.366 158.126a5 5 0 0 1 -1.868-9.64l111.051-44.673a5 5 0 1 1 3.732 9.277l-111.051 44.674a4.988 4.988 0 0 1 -1.864.362z"/><path d="m389.558 220.228c-.072 0-.145 0-.217 0a5 5 0 0 1 -4.782-5.209l2.341-54.791-63.769-53.655v67.568a5 5 0 0 1 -10 0v-78.314a5 5 0 0 1 8.219-3.827l73.87 62.153a5 5 0 0 1 1.78 4.041l-2.446 57.248a5 5 0 0 1 -4.996 4.786z"/></svg>